# xmcd CD database file generated by OrangeCD 5.2
#
# Track frame offsets:
#	182
#	18317
#	41652
#	55232
#	69102
#	108480
#	124155
#	137220
#	150820
#	168747
#	181952
#
# Disc length: 2858 seconds
#
# Revision: 6
# Processed by: cddbd v1.5.1PL2 Copyright (c) Steve Scherf et al.
# Submitted via: OrangeCD 5.2
#
DISCID=8d0b280b
DTITLE=Sly and The Family Stone - There's A Riot Goin' On
DYEAR=1971
DGENRE=Funk
TTITLE0=Luv N' Haight
TTITLE1=Just Like A Baby
TTITLE2=Poet
TTITLE3=Family Affair
TTITLE4=Africa Talks To You "The Asphalt Jungle"
TTITLE5=Brave And Strong
TTITLE6=(You Caught Me) Smilin'
TTITLE7=Time
TTITLE8=Spaced Cowboy
TTITLE9=Runnin' Away
TTITLE10=Thank You For Talkin' To Me Africa
EXTD=
EXTT0=
EXTT1=
EXTT2=
EXTT3=
EXTT4=
EXTT5=
EXTT6=
EXTT7=
EXTT8=
EXTT9=
EXTT10=
PLAYORDER=
